<?xml version="1.0" encoding="utf-8"?>
<svg version="1.1" id="Layer_1" x="0px" y="0px" viewBox="0 0 512.853 512.853" style="enable-background:new 0 0 512.853 512.853;" xmlns="http://www.w3.org/2000/svg">
  <defs>
    <pattern id="pattern-0" x="0" y="0" width="25" height="25" patternUnits="userSpaceOnUse" viewBox="0 0 100 100">
      <rect x="0" y="0" width="50" height="100" style="fill: black;"/>
    </pattern>
  </defs>
  <g>
    <g>
      <path d="M509.44,215.787L389.973,121.92c-2.56-1.707-6.827-2.56-9.387-0.853c-3.413,1.707-5.12,4.267-5.12,7.68v51.2 c-24.747,2.56-50.347,16.213-76.8,40.96V137.28h51.2c3.413,0,6.827-1.707,8.533-5.12s0.853-6.827-0.853-9.387L263.68,3.307 c-3.413-4.267-10.24-4.267-13.653,0L156.16,122.773c-1.707,2.56-2.56,5.973-0.853,9.387s4.267,5.12,7.68,5.12h51.2v84.48 c-26.453-24.747-52.053-38.4-76.8-40.96v-52.053c0-3.413-2.56-5.973-5.12-7.68c-3.413-1.707-6.827-0.853-9.387,0.853 L3.413,215.787C0.853,217.493,0,220.053,0,222.613s0.853,5.12,2.56,6.827l119.467,93.867c2.56,1.707,6.827,2.56,9.387,0.853 c3.413-1.707,5.12-4.267,5.12-7.68v-50.347c41.813,6.827,76.8,64,76.8,110.08v128c0,5.12,3.413,8.533,8.533,8.533h68.267 c5.12,0,8.533-3.413,8.533-8.533v-128c0-46.08,34.987-103.253,76.8-110.08v50.347c0,3.413,1.707,5.973,5.12,7.68 s6.827,0.853,9.387-0.853L509.44,229.44c2.56-1.707,3.413-4.267,3.413-6.827S511.147,217.493,509.44,215.787z M392.533,298.56 v-41.813c0-5.12-3.413-8.533-8.533-8.533c-55.467,0-102.4,69.973-102.4,128V495.68h-51.2V376.213c0-58.027-46.933-128-102.4-128 c-5.12,0-8.533,3.413-8.533,8.533v41.813l-97.28-75.947l97.28-75.947v41.813c0,5.12,3.413,8.533,8.533,8.533 c27.307,0,55.467,16.213,87.893,50.347c2.56,2.56,5.973,3.413,9.387,1.707c3.413-0.853,5.12-4.267,5.12-7.68v-112.64 c0-5.12-3.413-8.533-8.533-8.533h-41.813L256,22.933l75.947,97.28h-41.813c-5.12,0-8.533,3.413-8.533,8.533v112.64 c0,4.267,1.707,6.827,5.12,7.68c3.413,1.707,6.827,0.853,9.387-1.707c32.427-34.133,60.587-50.347,87.893-50.347 c5.12,0,8.533-3.413,8.533-8.533v-41.813l97.28,75.947L392.533,298.56z" style="fill: rgb(76, 145, 224); stroke-linecap: round; stroke: rgba(255, 255, 0, 0.5); paint-order: stroke; stroke-width: 6px; stroke-miterlimit: 5;"/>
    </g>
  </g>
  <g/>
  <g/>
  <g/>
  <g/>
  <g/>
  <g/>
  <g/>
  <g/>
  <g/>
  <g/>
  <g/>
  <g/>
  <g/>
  <g/>
  <g/>
</svg>