<?xml version="1.0" encoding="utf-8"?>
<svg id="Ebene_1" data-name="Ebene 1" viewBox="0 0 940 1400" xmlns="http://www.w3.org/2000/svg">
  <defs>
    <style>.cls-1,.cls-3{fill:none}.cls-2{fill:#303f62}.cls-3{stroke:#303f62;stroke-linecap:round;stroke-miterlimit:10;stroke-width:8px}.cls-5{fill:#ff008f}</style>
    <pattern id="Neues_Muster" width="264" height="212" data-name="Neues Muster" patternUnits="userSpaceOnUse" patternTransform="matrix(1, 0, 0, 1, 59.540955, 1144.586914)">
      <path d="M0 0h264v212H0z" class="cls-1"/>
      <path d="M125 220c-1 4-5 4-7 3a9 9 0 0 1-3-7 8 8 0 0 1 2-5 5 5 0 0 1 4-2c2 0 3 3 3 6a24 24 0 0 1 1 5z" class="cls-2"/>
      <path d="M163 222c-3 1-5-2-5-4a8 8 0 0 1 3-6 7 7 0 0 1 6-1 5 5 0 0 1 3 2c1 1-1 3-3 5a23 23 0 0 1-4 4z" class="cls-2"/>
      <path d="M142 220c-3 1-5-2-5-4a8 8 0 0 1 3-6 8 8 0 0 1 6-1 5 5 0 0 1 3 2c1 1-1 3-3 5a23 23 0 0 1-4 4z" class="cls-2"/>
      <path d="M214 218c-3 0-5-3-4-5a8 8 0 0 1 5-5 7 7 0 0 1 5 0 5 5 0 0 1 2 3c1 2-1 3-3 4a22 22 0 0 1-5 3z" class="cls-2"/>
      <path d="M36 216c1 2-2 4-4 4a8 8 0 0 1-6-3 7 7 0 0 1-1-5 5 5 0 0 1 2-3c2 0 4 1 5 3a21 21 0 0 1 4 4z" class="cls-2"/>
      <path d="M266 210c2 3-1 6-3 6a8 8 0 0 1-7-2 8 8 0 0 1-2-5 5 5 0 0 1 1-4c1-1 4 0 6 2a24 24 0 0 1 5 3z" class="cls-2"/>
      <path d="M1 210c2 3-1 6-3 6a8 8 0 0 1-6-2 8 8 0 0 1-3-5 5 5 0 0 1 2-4c1-1 4 0 6 2a23 23 0 0 1 4 3z" class="cls-2"/>
      <path d="M271 191c3-1 5 2 5 4a8 8 0 0 1-3 6 8 8 0 0 1-6 2 5 5 0 0 1-3-3c-1-1 0-3 2-5a23 23 0 0 1 5-4z" class="cls-2"/>
      <path d="M263 28c-2-2 1-4 3-4a7 7 0 0 1 5 3 6 6 0 0 1 1 4 4 4 0 0 1-2 3l-5-2a18 18 0 0 1-2-4z" class="cls-2"/>
      <path d="M51 117c2-3 6-1 7 0a8 8 0 0 1 1 7 8 8 0 0 1-4 4 5 5 0 0 1-4 0c-2-1-2-3-1-6a23 23 0 0 1 1-5z" class="cls-2"/>
      <path d="M88 184c1-3 5-1 6 0a8 8 0 0 1 1 7 7 7 0 0 1-4 4 5 5 0 0 1-4 0l-1-6a22 22 0 0 1 2-5z" class="cls-2"/>
      <path d="M62 95c1-2 5-1 7 1a9 9 0 0 1 0 7 8 8 0 0 1-4 5 5 5 0 0 1-4 0l-1-7a24 24 0 0 1 2-6z" class="cls-2"/>
      <path d="M67 185c1-3 5-1 6 0a8 8 0 0 1 0 7 7 7 0 0 1-4 4 5 5 0 0 1-3-1c-2 0-2-3-1-5a22 22 0 0 1 2-5z" class="cls-2"/>
      <path d="M49 141c2-2 6-1 7 1a8 8 0 0 1 0 6 7 7 0 0 1-4 4 5 5 0 0 1-3 0c-2 0-2-3-1-5a23 23 0 0 1 1-6z" class="cls-2"/>
      <path d="M79 147c2-3 6-1 7 1a8 8 0 0 1 0 6 7 7 0 0 1-4 4 5 5 0 0 1-4 0v-6a22 22 0 0 1 1-5z" class="cls-2"/>
      <path d="M44 196c2-2 5 1 5 2a8 8 0 0 1-1 7 7 7 0 0 1-5 2 5 5 0 0 1-4-1c-1-1 0-4 1-6a22 22 0 0 1 4-4z" class="cls-2"/>
      <path d="M49 165c2-2 5 1 6 3a8 8 0 0 1-1 6 7 7 0 0 1-5 3 5 5 0 0 1-3-1c-2-1-1-4 0-6a23 23 0 0 1 3-5z" class="cls-2"/>
      <path d="M69 130c2-3 6-2 7 0a8 8 0 0 1 0 7 8 8 0 0 1-4 4 5 5 0 0 1-3 0c-2-1-2-3-1-6a23 23 0 0 1 1-5z" class="cls-2"/>
      <path d="M9 163c3-2 6 0 6 2a8 8 0 0 1-2 7 7 7 0 0 1-5 2 5 5 0 0 1-3-1c-1-1 0-4 1-6a23 23 0 0 1 3-4z" class="cls-2"/>
      <path d="M6 191c3-1 6 2 6 4a8 8 0 0 1-4 6 8 8 0 0 1-5 2 5 5 0 0 1-4-3l3-5a23 23 0 0 1 4-4z" class="cls-2"/>
      <path d="M33 103c2-1 5 1 5 3a8 8 0 0 1-2 6 7 7 0 0 1-5 2 5 5 0 0 1-3-1c-1-1 0-4 1-6a21 21 0 0 1 4-4z" class="cls-2"/>
      <path d="M7 84c3-2 5 1 5 3a7 7 0 0 1-2 5 6 6 0 0 1-5 2 4 4 0 0 1-3-2c-1-1 1-3 2-5a19 19 0 0 1 3-3z" class="cls-2"/>
      <path d="M9 108c3-2 5 1 5 3a7 7 0 0 1-3 5 6 6 0 0 1-5 1 4 4 0 0 1-3-2l3-4a19 19 0 0 1 3-3z" class="cls-2"/>
      <path d="M26 179c3-1 5 2 5 4a8 8 0 0 1-3 6 7 7 0 0 1-6 1 5 5 0 0 1-3-2c-1-1 1-4 3-5a22 22 0 0 1 4-4z" class="cls-2"/>
      <path d="M67 209c3 1 2 5 1 6a8 8 0 0 1-6 2 7 7 0 0 1-5-3 5 5 0 0 1-1-4l6-2a22 22 0 0 1 5 1z" class="cls-2"/>
      <path d="M30 151c1 3-2 5-4 5a8 8 0 0 1-6-3 7 7 0 0 1-1-5 5 5 0 0 1 2-3c2-1 4 1 5 2a22 22 0 0 1 4 4z" class="cls-2"/>
      <path d="M16 136c1 3-2 5-4 5a7 7 0 0 1-5-3 7 7 0 0 1-1-5 5 5 0 0 1 1-3c2-1 4 1 6 2a21 21 0 0 1 3 4z" class="cls-2"/>
      <path d="M36 92c0 3-4 3-6 2a8 8 0 0 1-2-6 7 7 0 0 1 2-5 5 5 0 0 1 4-2l2 6a23 23 0 0 1 0 5z" class="cls-2"/>
      <path d="M128 79c-1 3-5 3-7 2a9 9 0 0 1-3-7 8 8 0 0 1 2-6 6 6 0 0 1 4-1c2 0 3 3 3 6a26 26 0 0 1 1 6z" class="cls-2"/>
      <path d="M146 51c0 4-4 5-6 4a9 9 0 0 1-5-5 8 8 0 0 1 0-7 6 6 0 0 1 4-2l5 5a26 26 0 0 1 2 5z" class="cls-2"/>
      <path d="M125 28c0 4-4 5-6 4a9 9 0 0 1-5-5 8 8 0 0 1 1-6 6 6 0 0 1 3-3c2 0 3 2 5 5a26 26 0 0 1 2 5z" class="cls-2"/>
      <path d="M125 8c-1 4-5 4-7 2a9 9 0 0 1-3-6 8 8 0 0 1 2-6 5 5 0 0 1 4-1c2 0 3 3 3 5a24 24 0 0 1 1 6z" class="cls-2"/>
      <path d="M163 10c-3 1-5-2-5-4a8 8 0 0 1 3-6 7 7 0 0 1 6-1 5 5 0 0 1 3 2c1 1-1 3-3 5a23 23 0 0 1-4 4z" class="cls-2"/>
      <path d="M142 8c-3 1-5-2-5-4a8 8 0 0 1 3-6 8 8 0 0 1 6-2 5 5 0 0 1 3 3c1 1-1 3-3 5a23 23 0 0 1-4 4z" class="cls-2"/>
      <path d="M148 31c-3 1-5-2-5-4a9 9 0 0 1 3-7 8 8 0 0 1 6-1 5 5 0 0 1 3 2c1 2-1 4-3 6a24 24 0 0 1-4 4z" class="cls-2"/>
      <path d="M180 27c-3 0-4-3-4-5a8 8 0 0 1 5-5 7 7 0 0 1 5 0 5 5 0 0 1 3 2c0 2-2 4-4 5a23 23 0 0 1-5 3z" class="cls-2"/>
      <path d="M169 46c-3 1-5-3-5-5a8 8 0 0 1 5-6 8 8 0 0 1 6 0 5 5 0 0 1 2 3c1 1-1 3-3 5a23 23 0 0 1-5 3z" class="cls-2"/>
      <path d="M214 6c-3 0-5-4-4-5a8 8 0 0 1 5-5 7 7 0 0 1 5 0 5 5 0 0 1 2 3c1 1-1 3-3 4a22 22 0 0 1-5 3z" class="cls-2"/>
      <path d="M199 22c-3 0-2-4-1-6a8 8 0 0 1 6-2 7 7 0 0 1 5 2 5 5 0 0 1 1 3c0 2-3 3-5 3a21 21 0 0 1-6 0z" class="cls-2"/>
      <path d="M222 30c-3 0-4-4-3-6a8 8 0 0 1 6-4 7 7 0 0 1 5 2 5 5 0 0 1 2 3c0 1-2 3-5 3a22 22 0 0 1-5 2z" class="cls-2"/>
      <path d="M199 48c-3-2-1-5 0-7a8 8 0 0 1 7 0 7 7 0 0 1 4 4 5 5 0 0 1 0 3c-1 2-3 2-6 1a22 22 0 0 1-5-1z" class="cls-2"/>
      <path d="M182 87c-3-1-2-5 0-6a8 8 0 0 1 7-1 8 8 0 0 1 4 4 5 5 0 0 1 0 3c0 2-3 2-6 2a23 23 0 0 1-5-2z" class="cls-2"/>
      <path d="M221 49c-1-3 2-5 4-5a8 8 0 0 1 5 3 7 7 0 0 1 2 6 5 5 0 0 1-2 2c-2 1-4 0-6-2a23 23 0 0 1-3-4z" class="cls-2"/>
      <path d="M224 68c1-3 5-2 6-1a8 8 0 0 1 2 7 7 7 0 0 1-3 4 5 5 0 0 1-3 1c-2 0-2-3-2-5a22 22 0 0 1 0-6z" class="cls-2"/>
      <path d="M186 58c1-3 4-3 6-3a8 8 0 0 1 4 6 7 7 0 0 1-1 5 5 5 0 0 1-3 2c-2 0-3-2-4-4a22 22 0 0 1-2-6z" class="cls-2"/>
      <path d="M242 22c0-3 4-4 6-3a8 8 0 0 1 3 6 7 7 0 0 1-1 5 5 5 0 0 1-3 2c-2 0-3-2-4-5a22 22 0 0 1-1-5z" class="cls-2"/>
      <path d="M209 80c2-3 6-1 6 1a8 8 0 0 1 0 6 7 7 0 0 1-4 4 5 5 0 0 1-4-1v-6a22 22 0 0 1 2-4z" class="cls-2"/>
      <path d="M211 106c1-2 5 0 6 1a8 8 0 0 1 0 7 7 7 0 0 1-4 4 5 5 0 0 1-4-1v-5a22 22 0 0 1 2-6z" class="cls-2"/>
      <path d="M151 63c3-3 6 0 7 2a8 8 0 0 1-1 6 8 8 0 0 1-5 4 5 5 0 0 1-4-1v-6a24 24 0 0 1 3-5z" class="cls-2"/>
      <path d="M157 97c3-2 6 1 6 3a9 9 0 0 1-2 7 8 8 0 0 1-5 2 5 5 0 0 1-4-1c-1-2 0-4 2-6a24 24 0 0 1 3-5z" class="cls-2"/>
      <path d="M142 85c3-1 5 3 5 5a9 9 0 0 1-3 6 8 8 0 0 1-6 1 5 5 0 0 1-4-2c-1-1 1-4 3-6a25 25 0 0 1 5-4z" class="cls-2"/>
      <path d="M112 43c3-2 6 2 6 4a9 9 0 0 1-3 7 9 9 0 0 1-6 2 6 6 0 0 1-4-2c-1-2 1-5 3-7a26 26 0 0 1 4-4z" class="cls-2"/>
      <path d="M22 40c3 0 4 3 4 5a7 7 0 0 1-4 4 7 7 0 0 1-5 1 5 5 0 0 1-2-2c-1-2 1-4 3-5a21 21 0 0 1 4-3z" class="cls-2"/>
      <path d="M55 51c3-1 5 2 5 4a8 8 0 0 1-4 6 8 8 0 0 1-5 1 5 5 0 0 1-3-3c-1-1 1-3 3-5a23 23 0 0 1 4-3z" class="cls-2"/>
      <path d="M253 42c3-1 4 2 3 4a7 7 0 0 1-3 4 6 6 0 0 1-5 0 4 4 0 0 1-2-2c0-2 1-3 3-4a19 19 0 0 1 4-2z" class="cls-2"/>
      <path d="M106 88c3-1 5 3 4 5a9 9 0 0 1-5 6 8 8 0 0 1-6-1 6 6 0 0 1-3-3l5-5a25 25 0 0 1 5-2z" class="cls-2"/>
      <path d="M87 50c4 0 4 5 3 7a9 9 0 0 1-7 3 8 8 0 0 1-6-2 6 6 0 0 1-1-3c0-2 2-4 5-4a26 26 0 0 1 6-1z" class="cls-2"/>
      <path d="M74 72c3 0 4 5 3 7a9 9 0 0 1-7 3 8 8 0 0 1-6-1 6 6 0 0 1-1-4c0-2 2-3 5-4a25 25 0 0 1 6-1z" class="cls-2"/>
      <path d="M68 31c3 1 3 5 2 7a9 9 0 0 1-7 3 8 8 0 0 1-5-2 5 5 0 0 1-2-4c1-2 4-3 6-3a24 24 0 0 1 6-1z" class="cls-2"/>
      <path d="M59 9c3 0 4 4 2 6a8 8 0 0 1-6 3 8 8 0 0 1-5-1 5 5 0 0 1-2-4c0-1 3-3 5-3a23 23 0 0 1 6-1z" class="cls-2"/>
      <path d="M40 22c3 1 3 5 2 6a8 8 0 0 1-6 3 7 7 0 0 1-5-3 5 5 0 0 1-1-3l5-3a22 22 0 0 1 5 0z" class="cls-2"/>
      <path d="M19 9c2 1 2 5 1 6a7 7 0 0 1-5 2 6 6 0 0 1-5-2 4 4 0 0 1-1-3c0-2 3-2 5-2a20 20 0 0 1 5-1z" class="cls-2"/>
      <path d="M36 3c1 3-2 5-4 5a8 8 0 0 1-6-3 7 7 0 0 1-1-5 5 5 0 0 1 2-3c2-1 4 1 5 2a22 22 0 0 1 4 4z" class="cls-2"/>
      <path d="M81 8c-2-3 0-6 2-7a9 9 0 0 1 7 0 8 8 0 0 1 3 5 5 5 0 0 1 0 4c-1 2-4 1-7 0a24 24 0 0 1-5-2z" class="cls-2"/>
      <path d="M87 28c-2-3 0-7 3-7a9 9 0 0 1 7 1 8 8 0 0 1 3 6 6 6 0 0 1-1 3c-1 2-4 1-7 0a25 25 0 0 1-5-3z" class="cls-2"/>
      <path d="M90 73c-2-2 0-6 2-7a9 9 0 0 1 8 1 8 8 0 0 1 4 5 6 6 0 0 1-1 4c-2 2-4 1-7 0a26 26 0 0 1-6-3z" class="cls-2"/>
      <path d="M12 68c-2-2 1-5 3-5a7 7 0 0 1 5 2 7 7 0 0 1 2 4 4 4 0 0 1-1 3c-2 1-4 0-6-1a20 20 0 0 1-3-3z" class="cls-2"/>
      <path d="M-2 28c-1-2 2-4 4-4a7 7 0 0 1 4 3 6 6 0 0 1 1 4 4 4 0 0 1-1 3l-5-2a18 18 0 0 1-3-4z" class="cls-2"/>
      <path d="M68 172c-2-1-2-5 0-6a8 8 0 0 1 6-2 7 7 0 0 1 5 3 5 5 0 0 1 0 3c0 2-3 2-5 2a23 23 0 0 1-6 0z" class="cls-2"/>
      <path d="M244 216c0 3-4 3-6 2a8 8 0 0 1-3-5 7 7 0 0 1 2-6 5 5 0 0 1 3-1c2 0 3 2 3 5a22 22 0 0 1 1 5z" class="cls-2"/>
      <path d="M232 197c-1 3-5 2-6 0a8 8 0 0 1-1-7 7 7 0 0 1 4-4 5 5 0 0 1 4 0l1 6a23 23 0 0 1-2 5z" class="cls-2"/>
      <path d="M266-2c2 3-1 6-3 6a8 8 0 0 1-7-2 8 8 0 0 1-2-6 5 5 0 0 1 1-3c1-1 4 0 6 1a24 24 0 0 1 5 4z" class="cls-2"/>
      <path d="M249 143c2-2 6 0 7 1a9 9 0 0 1 0 7 8 8 0 0 1-4 5 5 5 0 0 1-4-1c-2-1-1-3-1-6a24 24 0 0 1 2-6z" class="cls-2"/>
      <path d="M246 186c-2-2 0-6 2-7a9 9 0 0 1 7 1 8 8 0 0 1 3 5 5 5 0 0 1 0 4h-7a24 24 0 0 1-5-3z" class="cls-2"/>
      <path d="M229 160c2-3 5-2 6 0a8 8 0 0 1 1 7 7 7 0 0 1-4 4 5 5 0 0 1-3 0c-2-1-2-3-1-6a23 23 0 0 1 1-5z" class="cls-2"/>
      <path d="M206 181c2-3 6-1 7 0a8 8 0 0 1 0 7 7 7 0 0 1-4 4 5 5 0 0 1-3 0c-2-1-2-4-1-6a22 22 0 0 1 1-5z" class="cls-2"/>
      <path d="M191 208c1-2 5-1 6 1a8 8 0 0 1 1 6 7 7 0 0 1-4 4 5 5 0 0 1-4 0l-1-5a22 22 0 0 1 2-6z" class="cls-2"/>
      <path d="M187 163c2-2 5-1 6 1a8 8 0 0 1 0 7 7 7 0 0 1-4 3 5 5 0 0 1-4 0v-6a22 22 0 0 1 2-5z" class="cls-2"/>
      <path d="M188 189c3-1 5 2 5 4a8 8 0 0 1-3 6 7 7 0 0 1-6 1 5 5 0 0 1-3-2l3-5a22 22 0 0 1 4-4z" class="cls-2"/>
      <path d="M179 146c2-2 5 0 6 2a8 8 0 0 1 0 6 7 7 0 0 1-4 4 5 5 0 0 1-4-1v-6a22 22 0 0 1 2-5z" class="cls-2"/>
      <path d="M186 104c3-2 5 2 5 4a8 8 0 0 1-3 5 7 7 0 0 1-6 2 5 5 0 0 1-3-2l3-6a22 22 0 0 1 4-3z" class="cls-2"/>
      <path d="M167 175c2-2 5 1 6 2a8 8 0 0 1-1 7 7 7 0 0 1-5 3 5 5 0 0 1-4-1c-1-1 0-4 1-6a22 22 0 0 1 3-5z" class="cls-2"/>
      <path d="M150 146c3-2 5 1 6 3a8 8 0 0 1-2 6 7 7 0 0 1-5 2 5 5 0 0 1-4-1c-1-1 0-4 2-6a23 23 0 0 1 3-4z" class="cls-2"/>
      <path d="M143 125c2-2 5 1 5 3a8 8 0 0 1-2 6 7 7 0 0 1-5 2 5 5 0 0 1-3-1c-1-2 0-4 1-6a23 23 0 0 1 4-4z" class="cls-2"/>
      <path d="M146 171c2-2 5 1 5 3a8 8 0 0 1-2 6 7 7 0 0 1-5 2 5 5 0 0 1-4-2c-1-1 1-4 2-6a21 21 0 0 1 4-3z" class="cls-2"/>
      <path d="M157 190c3-1 5 2 5 4a8 8 0 0 1-3 6 7 7 0 0 1-5 1 5 5 0 0 1-3-2c-1-2 0-4 2-5a22 22 0 0 1 4-4z" class="cls-2"/>
      <path d="M84 110c3-1 5 2 5 4a8 8 0 0 1-3 6 7 7 0 0 1-6 1 5 5 0 0 1-3-2c-1-1 1-3 3-5a23 23 0 0 1 4-4z" class="cls-2"/>
      <path d="M123 140c-2 2-5-1-6-3a8 8 0 0 1 3-7 8 8 0 0 1 5-2 5 5 0 0 1 4 2c1 1 0 4-2 6a23 23 0 0 1-4 4z" class="cls-2"/>
      <path d="M112 115c2 2-1 5-4 5a9 9 0 0 1-6-2 8 8 0 0 1-2-6 5 5 0 0 1 2-3c1-1 4 0 6 2a24 24 0 0 1 4 4z" class="cls-2"/>
      <path d="M133 118c-2 3-6 0-6-2a8 8 0 0 1 1-7 8 8 0 0 1 5-3 5 5 0 0 1 4 1c1 1 0 4-1 6a24 24 0 0 1-3 5z" class="cls-2"/>
      <path d="M167 137c-3 2-6 0-7-2a8 8 0 0 1 2-7 7 7 0 0 1 5-3 5 5 0 0 1 3 1c1 1 1 4-1 6a23 23 0 0 1-2 5z" class="cls-2"/>
      <path d="M198 136c-2 3-5 1-6-1a8 8 0 0 1 0-7 7 7 0 0 1 5-3 5 5 0 0 1 3 1c2 1 1 3 0 6a22 22 0 0 1-2 4z" class="cls-2"/>
      <path d="M211 156c-2 2-6 0-6-2a8 8 0 0 1 1-7 7 7 0 0 1 5-3 5 5 0 0 1 3 1v6a22 22 0 0 1-3 5z" class="cls-2"/>
      <path d="M231 137c-1 3-5 1-6-1a8 8 0 0 1 0-7 8 8 0 0 1 4-4 5 5 0 0 1 4 1l1 6a23 23 0 0 1-3 5z" class="cls-2"/>
      <path d="M238 112c-2 3-6 2-7 0a8 8 0 0 1 0-7 8 8 0 0 1 4-4 5 5 0 0 1 4 0l1 6a24 24 0 0 1-2 5z" class="cls-2"/>
      <path d="M251 95c-2 3-6 1-7 0a9 9 0 0 1-1-7 8 8 0 0 1 4-5 5 5 0 0 1 4 0c2 1 2 4 2 6a24 24 0 0 1-2 6z" class="cls-2"/>
      <path d="M256 126c-3 2-6-1-7-3a9 9 0 0 1 2-7 8 8 0 0 1 5-3 5 5 0 0 1 4 1c1 1 0 4-1 6a24 24 0 0 1-3 6z" class="cls-2"/>
      <path d="M263 65c2 3-2 5-4 5a8 8 0 0 1-6-3 8 8 0 0 1-1-6 5 5 0 0 1 2-3c2-1 4 1 6 2a24 24 0 0 1 3 5z" class="cls-2"/>
      <path d="M113 206c2 3-1 5-3 5a8 8 0 0 1-6-3 7 7 0 0 1-1-6 5 5 0 0 1 2-3l5 3a22 22 0 0 1 3 4z" class="cls-2"/>
      <path d="M130 198c2 2-1 5-3 5a8 8 0 0 1-6-2 7 7 0 0 1-2-5 5 5 0 0 1 1-3c1-1 4 0 6 1a23 23 0 0 1 4 4z" class="cls-2"/>
      <path d="M115 186c1 3-2 5-4 5a8 8 0 0 1-5-3 7 7 0 0 1-2-5 5 5 0 0 1 2-3c2-1 4 0 6 2a22 22 0 0 1 3 4z" class="cls-2"/>
      <path d="M112 166c2 3-2 5-4 5a8 8 0 0 1-5-3 7 7 0 0 1-1-5 5 5 0 0 1 2-3c1-1 3 0 5 2a22 22 0 0 1 3 4z" class="cls-2"/>
      <path d="M130 160c2 3-2 5-4 5a8 8 0 0 1-5-3 7 7 0 0 1-2-5 5 5 0 0 1 2-3c2-1 4 0 6 2a22 22 0 0 1 3 4z" class="cls-2"/>
      <path d="M103 139c2 3-2 5-4 5a8 8 0 0 1-5-3 7 7 0 0 1-1-5 5 5 0 0 1 2-3c1-1 3 0 5 2a23 23 0 0 1 3 4z" class="cls-2"/>
      <path d="M1-2c2 3-1 6-3 6a8 8 0 0 1-6-2 8 8 0 0 1-3-6 5 5 0 0 1 2-3c1-1 4 0 6 1a24 24 0 0 1 4 4z" class="cls-2"/>
      <path d="M67-3c3 1 2 4 1 6a8 8 0 0 1-6 2 7 7 0 0 1-5-3 5 5 0 0 1-1-4l6-2a23 23 0 0 1 5 1z" class="cls-2"/>
      <path d="M244 4c0 3-4 3-6 2a8 8 0 0 1-3-6 7 7 0 0 1 2-5 5 5 0 0 1 3-2c2 1 3 3 3 5a22 22 0 0 1 1 6z" class="cls-2"/>
      <path d="M191-4c1-2 5-1 6 0a8 8 0 0 1 1 7 7 7 0 0 1-4 4 5 5 0 0 1-4 0l-1-6a22 22 0 0 1 2-5z" class="cls-2"/>
    </pattern>
    <pattern id="New_Pattern_Swatch_2" width="290" height="290" data-name="New Pattern Swatch 2" patternUnits="userSpaceOnUse" patternTransform="matrix(1, 0, 0, -1, 579.138733, 922.665558)">
      <path d="M0 0h290v290H0z" class="cls-1"/>
      <path d="M173 277c20 0 4 26 21 29" class="cls-3"/>
      <path d="M254 275q15 11 8 28" class="cls-3"/>
      <path d="M290 158c15 0 5 25 19 27" class="cls-3"/>
      <path d="M287 199c4-2 19 29 32 24" class="cls-3"/>
      <path d="M279 227q18 7 15 26" class="cls-3"/>
      <path d="M24 23C7 32 37 49 36 57" class="cls-3"/>
      <path d="M55 29c-2 10 14 13 20 15" class="cls-3"/>
      <path d="M268 257c1-10-9-18-21-14" class="cls-3"/>
      <path d="M77 11c0-1 28 7 32 33" class="cls-3"/>
      <path d="M116 10c17 2 6 24 21 29" class="cls-3"/>
      <path d="M158 23c10-9 19 17 27 18" class="cls-3"/>
      <path d="M210 29c-10 11 12 22 9 40" class="cls-3"/>
      <path d="M173-13c20 0 4 26 21 29" class="cls-3"/>
      <path d="M225 6c-1 19 20 20 18 35" class="cls-3"/>
      <path d="M264 28c15 1 12 20 24 20" class="cls-3"/>
      <path d="M254-15q15 11 8 28" class="cls-3"/>
      <path d="M245 54c7-2 8 24 20 25" class="cls-3"/>
      <path d="M282 61c13-1 7 29 20 34" class="cls-3"/>
      <path d="M254 95c-1 12 34 20 28 25" class="cls-3"/>
      <path d="M233 88c-1 4 0 36 16 34" class="cls-3"/>
      <path d="M256 141c25 0 20 29 19 28" class="cls-3"/>
      <path d="M219 134c0-1 7 21 23 17" class="cls-3"/>
      <path d="M191 59s7 40 21 37" class="cls-3"/>
      <path d="M154 57c24 8-5 22 11 30" class="cls-3"/>
      <path d="M183 103c13-6 13 28 25 31" class="cls-3"/>
      <path d="M157 122c16 4 11 25 22 29" class="cls-3"/>
      <path d="M127 62c10 4 1 23 14 29" class="cls-3"/>
      <path d="M91 55c2 31 14 12 27 33" class="cls-3"/>
      <path d="M51 64c-1 11 31 10 27 20" class="cls-3"/>
      <path d="M109 104c2 14 34 1 29 21" class="cls-3"/>
      <path d="M80 101c13 0 3 27 21 27" class="cls-3"/>
      <path d="M36 80c11 0 13 35 26 30" class="cls-3"/>
      <path d="M17 107c3 5 24 14 23 17" class="cls-3"/>
      <path d="M53 132c13 2 20 8 17 22" class="cls-3"/>
      <path d="M119 150c21-9 17 22 32 23" class="cls-3"/>
      <path d="M84 161a88 88 0 0 0 28 20" class="cls-3"/>
      <path d="M44 167s9 33 29 33" class="cls-3"/>
      <path d="M5 138c10-2 23 11 26 19" class="cls-3"/>
      <path d="M0 158c15 0 5 25 19 27" class="cls-3"/>
      <path d="M-3 199c4-2 19 29 32 24" class="cls-3"/>
      <path d="M52 213c-1 2 14 33 13 33" class="cls-3"/>
      <path d="M32 240c-14 1 17 21 16 25" class="cls-3"/>
      <path d="M-11 227q18 7 15 26" class="cls-3"/>
      <path d="M10 279c14-3 21 22 33 17" class="cls-3"/>
      <path d="M85 223c26-2 29 26 29 26" class="cls-3"/>
      <path d="M100 196c-1 10 17 10 21 15" class="cls-3"/>
      <path d="M134 234c3 18 25 1 25 17" class="cls-3"/>
      <path d="M123 265c12 3 11 26 21 25" class="cls-3"/>
      <path d="M69 267c15-4 18 20 33 19" class="cls-3"/>
      <path d="M135 195c4 8 16 2 22 6 6 5 0 15 9 21" class="cls-3"/>
      <path d="M175 182c15-3 11 25 24 27" class="cls-3"/>
      <path d="M197 161c-6 14 26 15 23 32" class="cls-3"/>
      <path d="M242 172c1 9 23 10 26 27" class="cls-3"/>
      <path d="M236 209c17-11 14 13 29 16" class="cls-3"/>
      <path d="M203 229c16-9 13 23 28 21" class="cls-3"/>
      <path d="M183 255c22-9 21 26 36 21" class="cls-3"/>
      <path d="M-26 28c15 1 12 20 24 20" class="cls-3"/>
      <path d="M-8 61c13-1 7 29 20 34" class="cls-3"/>
      <path d="M10-11c14-3 21 22 33 17" class="cls-3"/>
      <path d="M123-25c12 3 11 26 21 25" class="cls-3"/>
      <path d="M69-23c15-4 18 20 33 19" class="cls-3"/>
    </pattern>
  </defs>
  <path d="M 470.63 1288.654 C 482.112 1293.577 492.445 1297.267 495.889 1289.885 C 514.261 1294.806 522.298 1318.185 551.002 1304.651 C 568.224 1308.342 579.706 1300.959 603.818 1316.955 C 621.041 1321.877 626.781 1339.103 655.485 1330.49 L 703.709 1342.793 C 734.709 1351.408 762.265 1341.564 792.117 1364.942 C 818.526 1372.326 850.674 1378.477 862.156 1383.398 C 902.342 1393.244 932.194 1405.547 926.453 1399.395 C 950.565 1405.547 972.379 1376.016 962.046 1355.098 C 962.046 1355.098 960.898 1325.568 937.935 1292.345 C 929.897 1272.659 929.897 1233.285 911.527 1222.21 C 901.194 1195.141 889.711 1174.223 878.23 1133.618 C 872.489 1117.623 865.6 1093.013 859.86 1084.399 C 854.118 1067.173 833.451 1043.795 840.34 1032.721 C 834.6 1015.495 830.007 988.425 820.822 981.043 C 813.932 963.816 804.747 953.972 801.303 926.902 C 794.414 909.677 792.117 882.607 781.784 872.763 C 774.894 855.537 770.302 828.466 761.117 821.084 C 754.228 803.858 755.376 780.479 741.598 769.405 C 735.857 753.41 738.153 728.8 724.375 721.417 L 711.746 691.887 L 470.63 691.887 Z" class="cls-5" style="fill: rgb(140, 236, 212); fill-opacity: 0.64;" transform="matrix(-1, 0, 0, -1, 1435.307312, 2092.934021)"/>
  <path fill="#dde4f2" d="M 945.196 189.698 C 938.355 185.966 925.295 181.613 919.698 181.613 C 910.991 179.748 896.688 176.638 892.956 177.26 L 865.593 172.907 C 855.021 169.797 835.742 170.419 833.876 165.444 C 823.304 162.956 811.488 159.225 802.16 158.603 C 792.209 156.116 781.015 150.518 771.065 152.384 C 760.493 150.518 751.164 147.409 739.97 146.787 C 729.398 144.921 720.07 148.031 708.876 141.812 L 677.159 138.081 C 664.721 136.215 650.417 138.081 639.223 133.105 C 631.761 132.484 624.298 136.837 612.482 128.752 C 602.532 126.886 591.959 132.484 579.521 124.399 L 575.168 123.777 L 575.168 415.446 L 715.716 415.446 C 715.841 415.17 716.062 414.948 716.338 414.824 C 720.692 409.849 729.398 407.983 730.02 400.52 C 734.995 395.545 743.702 389.948 744.324 386.217 C 751.786 378.754 760.493 368.804 767.334 364.45 C 775.418 357.609 787.234 346.415 791.588 345.172 C 799.672 338.953 810.866 336.465 817.085 326.515 C 825.792 320.918 834.498 312.833 843.205 309.102 C 851.911 303.505 860.618 304.126 869.324 291.067 C 878.653 284.848 885.494 281.116 895.444 271.788 C 901.663 267.435 904.15 258.106 914.723 258.106 C 920.942 253.131 924.673 245.046 933.38 243.181 C 938.977 237.584 947.061 233.852 948.927 225.768 C 952.658 218.927 958.255 210.842 957.012 204.623 C 956.39 198.404 948.927 195.917 945.196 189.698 Z" style="fill-opacity: 0.64;" transform="matrix(-1, 0, 0, -1, 1532.356628, 539.223007)"/>
  <path d="M 471.949 1120.348 C 472.19 1121.703 472.524 1123.039 472.949 1124.348 C 475.949 1139.348 483.949 1151.348 483.949 1173.348 C 484.014 1175.712 484.35 1178.06 484.949 1180.348 C 489.949 1196.348 497.949 1211.348 496.949 1230.348 C 497.014 1232.712 497.35 1235.06 497.949 1237.348 C 501.949 1255.348 505.949 1266.348 509.949 1291.348 C 513.949 1309.348 514.949 1326.348 520.949 1341.348 C 521.371 1342.658 521.705 1343.994 521.949 1345.348 L 527.949 1374.348 C 530.501 1391.597 546.772 1403.348 563.949 1400.348 L 565.949 1399.348 C 576.841 1396.795 587.855 1394.792 598.949 1393.348 L 600.949 1392.348 C 615.949 1389.348 628.949 1389.348 649.949 1382.348 C 650.932 1381.967 651.934 1381.633 652.949 1381.348 C 670.949 1377.348 690.949 1371.348 708.949 1368.348 C 727.949 1364.348 741.949 1365.348 764.949 1356.348 C 766.585 1355.878 768.258 1355.543 769.949 1355.348 C 786.949 1351.348 803.949 1350.348 818.949 1344.348 C 820.258 1343.923 821.594 1343.589 822.949 1343.348 C 836.949 1340.348 849.949 1336.348 860.949 1329.348 L 862.949 1328.348 C 873.949 1322.348 879.949 1314.348 891.949 1307.348 C 894.098 1306.253 896.111 1304.91 897.949 1303.348 L 919.949 1278.348 C 920.677 1277.39 921.345 1276.389 921.949 1275.348 C 927.949 1265.348 931.949 1254.348 935.949 1242.348 L 936.949 1240.348 C 940.949 1229.348 945.949 1221.348 943.949 1206.348 C 943.814 1204.684 943.814 1203.012 943.949 1201.348 C 943.949 1189.348 943.949 1171.348 940.949 1164.348 C 940.583 1163.698 940.25 1163.03 939.949 1162.348 C 935.949 1150.348 928.949 1139.348 925.949 1129.348 C 925.551 1126.946 924.88 1124.598 923.949 1122.348 L 911.949 1102.348 L 469.949 1102.348 L 471.949 1120.348 Z" style="fill: rgb(76, 145, 224); fill-opacity: 0.64;" transform="matrix(-1, 0, 0, -1, 1414.353302, 2503.163818)"/>
  <path d="M 450.506 265.063 C 448.163 262.485 445.588 260.168 442.818 258.145 C 419.753 242.927 387.72 247.077 365.937 263.679 C 353.123 271.98 342.873 283.048 333.903 294.116 C 327.496 302.417 321.09 309.334 313.402 314.868 C 303.151 324.553 285.212 330.087 277.524 321.786 C 277.055 321.372 276.626 320.909 276.242 320.402 C 272.398 314.868 272.398 303.801 274.961 294.116 C 278.805 283.048 286.493 271.98 294.181 260.912 L 300.588 251.228 C 309.557 234.626 323.652 211.107 321.09 183.437 C 320.061 170.378 315.617 157.903 308.276 147.466 C 303.679 140.521 298.051 134.445 291.619 129.481 C 273.68 117.029 253.178 112.879 233.958 118.413 C 212.175 126.714 198.08 143.316 185.267 157.151 L 175.016 170.985 C 163.484 182.053 148.108 188.971 142.982 183.437 C 140.42 182.053 139.138 177.903 139.138 173.752 C 139.138 165.452 141.701 154.384 146.826 144.699 L 151.952 133.631 C 163.484 114.262 176.297 90.743 173.735 63.073 C 169.891 28.486 140.42 -0.567 105.823 -3.334 C 78.915 -4.718 49.444 7.734 26.38 32.637 C 13.566 46.471 3.315 61.69 -5.654 78.292 L -15.905 96.277 L -17.186 99.044 C -25.077 114.487 -14.526 133.361 1.806 133.018 C 9.385 132.859 16.311 128.346 19.973 121.18 L 22.536 117.029 L 30.224 101.811 C 37.912 87.976 45.6 74.141 55.851 64.457 C 69.945 49.238 87.884 40.937 103.26 42.321 C 117.355 42.321 130.169 54.772 131.45 67.224 C 132.731 79.675 125.043 94.894 116.074 110.112 L 109.667 122.563 C 99.416 140.549 94.291 164.068 98.135 184.82 C 100.16 198.599 107.048 210.995 117.355 219.408 C 130.169 230.476 148.108 233.243 166.046 227.709 C 180.562 222.947 193.765 214.392 204.487 202.806 L 216.019 188.971 C 226.27 176.519 235.239 165.452 245.49 162.685 L 246.771 162.685 C 253.178 159.918 260.866 161.301 267.273 166.835 C 270.182 168.65 272.783 170.99 274.961 173.752 C 277.311 177.426 278.644 181.744 278.805 186.204 C 280.086 197.272 274.961 209.723 265.992 224.942 L 258.304 236.01 C 250.615 248.461 241.646 262.296 235.239 278.898 C 228.833 301.034 230.114 324.553 239.083 342.538 C 241.825 347.689 245.282 352.354 249.334 356.373 C 274.961 381.276 314.683 372.975 340.31 350.839 L 364.655 324.553 C 372.344 316.252 380.032 306.567 389.001 301.034 C 397.97 295.5 410.784 291.349 417.191 295.5 C 419.108 295.877 420.886 296.837 422.316 298.267 C 427.441 306.567 419.753 324.553 410.784 337.004 L 400.533 348.072 C 384.251 363.933 372.663 384.625 367.218 407.562 C 366.047 414.886 366.047 422.374 367.218 429.698 L 409.503 429.698 C 409.704 427.859 409.704 426.003 409.503 424.164 C 408.857 422.386 408.425 420.527 408.221 418.63 C 408.708 417.741 409.136 416.816 409.503 415.863 C 412.065 403.412 422.316 390.96 432.567 378.509 L 442.818 367.441 C 445.566 363.906 448.133 360.212 450.506 356.373 Z" class="cls-2" style="fill: rgb(51, 51, 51); fill-opacity: 0.64;" transform="matrix(-1, 0, 0, -1, 430.647617, 426.260009)"/>
  <path d="M 662.191 158.946 L 650.191 162.946 C 639.191 175.946 633.191 194.946 614.191 195.946 C 612.191 199.946 610.191 200.946 606.191 199.946 C 592.191 189.946 602.191 176.946 603.191 163.946 C 599.191 150.946 603.191 123.946 578.191 143.946 C 576.191 144.946 572.191 142.946 571.191 140.946 C 562.191 131.946 555.191 137.946 548.191 144.946 C 543.191 149.946 539.191 156.946 529.191 154.946 C 530.191 137.946 529.191 119.946 531.191 102.946 C 536.191 70.946 529.191 38.946 523.191 7.946 C 520.191 -5.054 514.191 -9.054 503.191 1.946 L 457.191 44.946 C 455.191 53.946 449.191 58.946 444.191 64.946 C 415.191 99.946 380.191 125.946 347.191 154.946 C 340.191 160.946 339.191 175.946 326.191 173.946 C 309.191 206.946 281.191 226.946 254.191 246.946 L 253.191 246.946 C 243.191 267.946 230.191 281.946 209.191 283.946 C 151.191 336.946 85.191 375.946 26.191 426.946 C 3.759 445.446 -9.405 472.872 -9.809 501.946 L -9.809 579.946 C -3.809 595.946 5.191 602.946 21.191 594.946 C 32.191 589.946 40.191 594.946 38.191 610.946 C 33.631 643.141 36.365 675.95 46.191 706.946 C 49.191 713.946 51.191 720.946 43.191 726.946 L 23.191 746.946 L 174.191 746.946 C 179.191 740.946 186.191 738.946 195.191 737.946 C 195.191 726.946 198.191 719.946 209.191 725.946 C 217.191 713.946 227.191 704.946 237.191 696.946 C 232.191 688.946 227.191 679.946 234.191 669.946 C 239.191 660.946 246.191 672.946 252.191 671.946 C 264.191 651.946 284.191 640.946 294.191 618.946 C 295.191 616.946 302.191 617.946 306.191 617.946 C 307.191 609.946 309.191 600.946 318.191 599.946 C 329.191 582.946 341.191 566.946 361.191 566.946 C 365.191 560.946 371.191 561.946 376.191 560.946 C 377.191 539.946 396.191 534.946 406.191 524.946 C 426.191 504.946 441.191 478.946 468.191 468.946 C 480.191 445.946 500.191 434.946 519.191 423.946 C 522.191 414.946 527.191 412.946 535.191 414.946 C 542.191 406.946 546.191 394.946 558.191 394.946 L 568.191 382.946 C 563.191 356.946 578.191 366.946 588.191 369.946 C 592.191 366.946 596.191 363.946 601.191 368.946 C 609.191 379.946 620.191 376.946 631.191 376.946 C 637.191 359.946 648.191 347.946 662.191 339.946 Z" class="cls-5" style="fill: rgb(140, 236, 212); fill-opacity: 0.64;" transform="matrix(-1, 0, 0, -1, 652.382, 742.507904)"/>
  <path d="M 478.49 733.933 L 192.49 733.933 C 188.49 739.933 184.49 743.933 181.49 742.933 C 172.49 756.933 156.49 772.933 153.49 786.933 C 144.49 800.933 137.49 806.933 125.49 830.933 C 116.49 844.933 104.49 851.933 97.49 873.933 C 87.49 888.933 79.49 886.933 69.49 916.933 C 60.49 930.933 41.49 940.933 43.49 957.933 L 18.49 996.933 C 2.49 1021.933 -13.51 1041.933 -23.51 1062.933 C -48.51 1100.933 -65.51 1112.933 -63.51 1123.933 C -74.51 1140.933 -68.51 1175.933 -42.51 1164.933 L 14.49 1168.933 C 32.49 1169.933 68.49 1178.933 77.49 1172.933 L 156.49 1178.933 C 170.49 1179.933 188.49 1176.933 199.49 1180.933 C 214.49 1181.933 226.49 1177.933 245.49 1184.933 C 261.49 1185.933 278.49 1174.933 293.49 1187.933 C 309.49 1188.933 337.49 1201.933 341.49 1190.933 C 357.49 1191.933 366.49 1209.933 389.49 1194.933 C 405.49 1195.933 414.49 1187.933 436.49 1197.933 C 451.49 1198.933 458.49 1209.933 478.49 1202.933 Z" style="fill: rgb(76, 145, 224); fill-opacity: 0.64;" transform="matrix(-1, 0, 0, -1, 409.739197, 1939.182739)"/>
  <path d="M 734.49 378.377 L 741.639 398.012 L 754.158 433.717 C 757.737 444.428 762.15 446.213 765.777 465.849 C 770.237 476.562 777.359 490.843 777.396 497.984 L 788.996 526.546 C 792.576 537.258 799.648 542.613 798.835 555.109 C 805.085 571.176 809.583 589.026 815.804 599.737 C 824.744 624.73 834.515 640.797 830.993 640.797 C 837.244 656.863 845.187 660.434 855.762 662.219 C 864.567 662.219 869.773 647.937 877.611 631.872 C 877.611 631.872 887.239 621.16 887.957 590.811 L 900.034 544.398 C 902.628 535.472 909.624 526.546 906.924 515.836 C 909.509 505.124 911.203 492.627 914.687 485.488 L 923.318 453.354 L 931.941 419.435 L 940.554 383.732 L 941.406 378.377 Z M 345.611 1253.109 C 341.218 1254.894 337.686 1253.109 334.145 1249.54 C 330.087 1259.058 327.439 1257.869 326.201 1245.969 C 321.799 1245.969 319.129 1240.614 316.459 1235.258 C 312.965 1240.614 309.511 1253.109 305.901 1237.043 C 302.361 1233.473 300.552 1224.547 295.269 1224.547 C 291.795 1233.473 289.134 1229.902 287.325 1220.976 C 283.841 1228.117 277.678 1228.117 275.879 1220.976 C 273.19 1212.051 276.645 1199.554 280.137 1194.199 C 288.875 1181.704 294.943 1163.852 302.8 1151.356 C 301.011 1146.001 299.23 1142.429 295.708 1142.429 C 287.793 1144.214 279.831 1137.074 272.758 1131.718 L 254.22 1122.793 C 243.625 1117.437 232.197 1121.008 222.455 1110.296 L 200.673 1153.141 C 192.314 1169.458 180.604 1176.735 169.08 1172.778 C 137.335 1163.852 105.531 1144.214 73.795 1137.074 C 65.009 1140.644 57.085 1140.644 49.984 1129.933 C 45.621 1137.074 40.318 1133.503 35.905 1131.718 C 26.21 1129.933 16.535 1131.718 6.811 1124.578 C 4.121 1115.652 -0.244 1122.793 -4.646 1122.793 L -19.643 1117.437 L -18.702 1292.381 C -13.391 1297.738 -15.974 1308.45 -16.808 1317.374 C -11.572 1308.45 -8.05 1308.45 -4.472 1319.161 C -1.848 1315.589 -0.078 1317.374 2.564 1317.374 C 7.79 1306.665 12.23 1313.803 16.671 1320.944 C 19.292 1317.374 21.945 1319.161 23.734 1324.516 C 29.906 1326.301 36.922 1320.944 42.262 1331.657 C 45.718 1319.161 49.259 1322.729 51.958 1333.442 C 54.618 1337.013 57.231 1331.657 59.881 1333.442 L 62.542 1337.013 C 68.667 1329.872 73.893 1319.161 81.808 1317.374 C 88.842 1315.589 88.871 1320.944 87.168 1331.657 C 86.471 1337.206 84.964 1342.182 82.843 1345.938 C 80.23 1351.293 79.377 1356.649 82.929 1362.005 L 88.269 1372.716 C 95.265 1363.79 104.089 1367.361 112.97 1381.641 C 116.522 1386.996 120.934 1388.782 125.336 1388.782 L 160.575 1392.353 L 185.257 1397.707 C 200.216 1395.921 213.462 1403.064 227.589 1410.203 C 238.107 1401.279 248.681 1403.064 257.554 1415.558 C 262.581 1413.142 267.889 1414.406 272.541 1419.129 C 280.417 1410.203 288.342 1410.203 295.434 1419.129 C 301.598 1419.129 306.843 1411.988 313.035 1417.343 C 313.828 1401.279 318.193 1394.138 326.117 1394.138 C 329.611 1388.782 328.643 1372.716 336.596 1378.07 C 337.448 1372.716 338.291 1365.575 342.674 1362.005 C 345.248 1349.508 347.832 1338.798 338.979 1329.872 C 335.429 1324.516 337.151 1317.374 339.754 1310.236 C 342.187 1304.528 344.804 1299.163 347.592 1294.167 C 351.957 1287.026 353.67 1278.101 350.961 1265.604 C 346.558 1265.604 347.401 1258.464 345.611 1253.109 Z" style="fill: rgba(255, 255, 0, 0.5); fill-opacity: 0.64;" transform="matrix(-0.999955, -0.009478, 0.009478, -0.999955, 913.223928, 1801.833848)"/>
  <path fill="url(#Neues_Muster)" d="M 264.541 1144.587 C 268.541 1152.587 271.541 1160.587 272.541 1168.587 C 278.541 1182.587 284.541 1198.587 296.541 1205.587 C 305.541 1216.587 307.541 1223.587 327.541 1234.587 C 339.541 1243.587 353.541 1251.587 365.541 1255.587 C 379.541 1260.587 393.541 1261.587 408.541 1265.587 C 422.541 1266.587 437.541 1260.587 453.541 1264.587 C 455.541 1279.587 465.541 1290.587 466.541 1307.587 C 472.541 1321.587 482.541 1333.587 489.541 1344.587 C 498.541 1356.587 506.541 1361.587 521.541 1374.587 C 532.541 1383.587 539.541 1392.587 559.541 1395.587 C 572.541 1400.587 589.541 1408.587 601.541 1405.587 C 616.541 1407.587 627.541 1406.587 646.541 1404.587 C 662.541 1402.587 674.541 1395.587 690.541 1392.587 C 703.541 1386.587 715.541 1382.587 727.541 1369.587 C 738.541 1359.587 753.541 1350.587 756.541 1337.587 C 764.541 1325.587 775.541 1311.587 776.541 1297.587 C 781.541 1283.587 784.541 1274.587 786.541 1252.587 C 787.541 1236.587 784.541 1217.587 783.541 1202.587 C 780.541 1184.587 772.541 1170.587 773.541 1144.587 Z" style="fill-opacity: 0.64;" transform="matrix(-1, 0, 0, -1, 1051.283264, 2551.264282)"/>
  <path fill="url(#New_Pattern_Swatch_2)" d="M 828.139 263.665 L 644.139 -12.335 C 643.411 -13.293 642.743 -14.294 642.139 -15.335 L 1041.139 -15.335 L 878.139 262.665 C 867.314 281.967 839.728 282.519 828.139 263.665 Z" style="fill-opacity: 0.64;"/>
</svg>